<?xml version="1.0" encoding="utf-8"?>
<!-- Generator: Adobe Illustrator 21.1.0, SVG Export Plug-In . SVG Version: 6.00 Build 0)  -->
<svg version="1.1" id="Capa_1" xmlns="http://www.w3.org/2000/svg" xmlns:xlink="http://www.w3.org/1999/xlink" x="0px" y="0px"
	 viewBox="0 0 497.3 497.3" style="enable-background:new 0 0 497.3 497.3;" xml:space="preserve">
<g id="XMLID_55_">
	<path id="XMLID_60_" d="M255.3,158.8c-2.4-1.1-5-1.2-7.5-0.7L231,106.6c5-5.6,4.8-17.3,1.3-28c-3.5-10.5-12.8-25.5-23.2-21.5
		c-18.7-2.2-27.7,15.5-36.6,32.8c-10.2,19.9-17.3,32.4-32.5,24.1c-1.8-1-4-0.4-5.1,1.2c-1.1,1.7-0.8,3.9,0.7,5.2
		c20.6,17.1,33.8,11.1,50-2.4c12.9-10.7,21.5-16.6,38-3.8l16,48.9c-0.5,0.7-1.1,1.2-1.4,2l-18.7,41.3L193,232.3
		c-3.1-1.4-6.4-2.2-10-2.2h-16.3c-3.3,0-6.4,0.7-9.2,1.8l-35.7-7.1l-27.7-26c-5.2-4.9-13.4-4.6-18.3,0.6c-4.9,5.2-4.6,13.4,0.6,18.3
		l30.4,28.5c1.8,1.7,4,2.8,6.3,3.2l29.4,5.8v48.9l-11.5,45.4c-0.3,1.4,0,2.8,0.8,3.9c0.9,1.1,2.2,1.7,3.6,1.7h7.1v18l-29.1,28.5
		c-5.1,5-5.2,13.2-0.2,18.3c5,5.1,13.1,5.2,18.3,0.2l33-32.3c2.5-2.4,3.9-5.8,3.9-9.2v-23.5h12.9v72.7c0,7.1,5.8,12.9,12.9,12.9
		c7.1,0,12.9-5.8,12.9-12.9v-72.7h7.1c1.4,0,2.7-0.6,3.6-1.7c0.9-1.1,1.2-2.5,0.8-3.9l-11.5-45.4v-49.6l32.1-31.3
		c1.1-1.1,2.1-2.4,2.7-3.9l19.7-43.5C264.7,169.4,261.8,161.7,255.3,158.8z M212.6,65.7c1.6,0,7.2,4.7,10.8,15.8
		c3.5,10.6,2.1,18.2,0.7,19.1c-1.6-0.1-7.1-4.8-10.8-15.8C209.7,73.7,211.4,66.5,212.6,65.7z M206.7,99.2
		c-10.6,0-18.5,6.5-26.1,12.9c-7.7,6.4-15.1,12.3-24,10.8c10.1-4.4,16.6-17,22.9-29.4c6.6-12.8,13.2-25.7,23.2-28.3
		c-1.7,6.2-0.9,14.7,1.7,22.6c1.4,4.2,3.3,8.3,5.6,11.9C208.9,99.5,207.8,99.2,206.7,99.2z"/>
	<path id="XMLID_59_" d="M205.8,186.6c0-17.1-13.9-31-31-31c-17.1,0-31,13.9-31,31c0,17.1,13.9,31,31,31
		C192,217.5,205.8,203.7,205.8,186.6z"/>
	<path id="XMLID_58_" d="M129.9,203.3c7,0,12.7-5.7,12.7-12.7c0-7-5.7-12.7-12.7-12.7c-5.9,0-15.2,9.6-28.4,3.4
		c-1.3-0.6-2.8-0.3-3.8,0.7c-1,1-1.2,2.6-0.5,3.9C101.6,194,111.4,203.3,129.9,203.3z"/>
	<path id="XMLID_57_" d="M336.7,84.2c-1.1,0-2.2,0.2-3.3,0.6c1.5-2.6,2.3-4.6,2.3-4.6s-1.7,0.7-4,2c0.2-0.8,0.4-1.6,0.4-2.5
		c0-8.7-5.5-15.7-12.4-15.7c-6.8,0-12.3,7-12.3,15.7c0,2.3,0.9,4.4,2.1,6.4c-5.3,0.5-9.5,3.9-9.5,8.2c0,4.6,4.8,8.4,10.7,8.4
		c0.4,0,0.7-0.1,1-0.2c-1,1.8-1.5,3.1-1.5,3.1s1.6-0.6,3.7-1.8c-0.2,0.6-0.3,1.2-0.3,1.8c0,5.9,3.8,10.7,8.4,10.7
		c4.3,0,7.7-4.2,8.2-9.5c2,1.2,4.1,2.1,6.4,2.1c8.7,0,15.7-5.5,15.7-12.3C352.4,89.7,345.4,84.2,336.7,84.2z"/>
	<path id="XMLID_56_" d="M421,102.5c0.2-0.8,0.4-1.6,0.4-2.5c0-8.7-5.5-15.7-12.4-15.7c-6.8,0-12.3,7-12.3,15.7
		c0,2.3,0.9,4.4,2.1,6.4c-5.3,0.5-9.5,3.9-9.5,8.2c0,4.6,4.8,8.4,10.7,8.4c0.4,0,0.7-0.1,1-0.2c-1,1.8-1.5,3.1-1.5,3.1
		s2.3-0.9,5.2-2.7c2.9-1.8,6.6-4.5,9.7-7.7c3.2-3.1,5.9-6.8,7.7-9.7c1.8-2.9,2.7-5.2,2.7-5.2S423.3,101.2,421,102.5z"/>
</g>
</svg>
